<svg width="43" height="42" viewBox="0 0 43 42" fill="none" xmlns="http://www.w3.org/2000/svg">
<path d="M41.9034 4.52143L41.9036 4.52148C42.0006 4.55464 42.1057 4.67452 42.1051 4.85214L41.9572 36.4115L41.9572 36.4122C41.9567 36.5795 41.8616 36.6961 41.7674 36.734L41.7665 36.7344L37.1622 38.5977L37.1612 38.5982C37.1355 38.6086 37.1091 38.6137 37.0816 38.6137H29.6875H29.6028L29.5228 38.6416L22.0466 41.2498C22.0501 41.2199 22.0519 41.1898 22.0519 41.1596V25.8083C23.7595 27.5485 25.4673 29.2888 27.1752 31.029L27.2199 31.0746L27.2522 31.1076C29.0659 32.9556 30.8795 34.8037 32.6929 36.6517C32.6694 36.6599 32.6458 36.6682 32.6222 36.6764L32.6142 36.6792C32.3452 36.773 32.076 36.8668 31.8068 36.9611L31.4719 37.0782V37.433V37.4342V37.9342H31.9719H35.5583H36.7135L35.9229 37.092L21.6597 21.8979L21.2949 21.5094L20.9304 21.898L6.67981 37.0922L5.89006 37.9342H7.04451H10.6138L10.7789 36.9623C10.507 36.8672 10.2355 36.7724 9.96417 36.6777C9.94056 36.6694 9.91694 36.6612 9.89333 36.653C11.7077 34.8022 13.5224 32.9517 15.337 31.1011L15.3687 31.0689C17.092 29.3115 18.8152 27.5542 20.5384 25.7966V41.1596C20.5384 41.19 20.5402 41.2203 20.5437 41.2505L13.0721 38.6417L12.9921 38.6137H12.9073H5.51778C5.49033 38.6137 5.46386 38.6086 5.43819 38.5981L5.4373 38.5978L0.837638 36.7345L0.837176 36.7343C0.74382 36.6966 0.648424 36.5798 0.647875 36.4122L0.647872 36.4115L0.500013 4.85135L0.500008 4.85059C0.498904 4.67287 0.603311 4.55368 0.701025 4.52041L0.701838 4.52013L4.45843 3.23392C4.48563 3.22491 4.50952 3.22151 4.52862 3.22151H11.9399H12.0119L12.081 3.20119L20.5484 0.710877C20.541 0.754208 20.5372 0.798079 20.5372 0.841932V17.1C18.6902 15.1997 16.9123 13.3405 15.1325 11.4795L15.0288 11.371C13.1238 9.37905 11.2154 7.38413 9.21928 5.33643C9.70558 5.18733 10.1858 5.03501 10.6623 4.88207L10.5094 3.906H6.05191H4.89811L5.68707 4.74789L20.9291 21.0125L21.2938 21.4017L21.6587 21.0127L36.911 4.74802L37.7007 3.906H36.5463H33.4092L33.2685 4.88578C33.4585 4.94153 33.6488 4.99751 33.8393 5.05357C31.8368 7.09865 29.8343 9.14349 27.8318 11.1884L27.8076 11.2131L27.7601 11.2616C25.857 13.2049 23.9538 15.1483 22.0507 17.0918V0.841932C22.0507 0.79781 22.0469 0.75367 22.0394 0.710081L30.5173 3.20246L30.5864 3.22276H30.6583H38.0731C38.0976 3.22276 38.119 3.22668 38.1372 3.23311L38.1416 3.23461L41.9034 4.52143ZM0.000173989 4.85369L1.78327e-05 4.85369L0.000173989 4.85369ZM1.18722 35.8271L1.18879 36.1624L1.49949 36.2882L5.40801 37.8714L5.72584 38.0002L5.96042 37.75L20.9228 21.7968L21.2435 21.4549L20.923 21.1128L4.96224 4.08037L4.7412 3.84448L4.43537 3.94923L1.38307 4.99469L1.04341 5.11103L1.04509 5.47006L1.18722 35.8271ZM41.1054 36.2883L41.4163 36.1625L41.4179 35.8271L41.5589 5.47004L41.5606 5.1109L41.2207 4.99464L38.165 3.94918L37.8594 3.84462L37.6384 4.08021L21.664 21.1127L21.343 21.4549L21.6641 21.7969L36.6403 37.7502L36.8747 38L37.1923 37.8715L41.1054 36.2883Z" fill="url(#paint0_linear_1699_583)" stroke="black"/>
<defs>
<linearGradient id="paint0_linear_1699_583" x1="-0.000520877" y1="21.0015" x2="42.6052" y2="21.0015" gradientUnits="userSpaceOnUse">
<stop/>
<stop offset="0.0001"/>
<stop offset="1"/>
</linearGradient>
</defs>
</svg>
