<svg width="176" height="42" viewBox="0 0 176 42" fill="none" xmlns="http://www.w3.org/2000/svg">
<path d="M59.8521 30.2249V16.9103C59.8521 13.36 60.8951 11.2228 65.5979 11.2228H67.1235C68.6743 11.2228 69.8698 11.7793 70.7592 12.8885H71.0905C72.0051 11.7793 73.1249 11.2228 74.6746 11.2228H76.2002C80.9041 11.2228 81.9713 13.3587 81.9713 16.9103V30.2249C81.9713 30.5863 81.7936 30.7801 81.4623 30.7801H79.5814C79.2502 30.7801 79.0725 30.5863 79.0725 30.2249V16.9653C79.0725 14.3029 77.9802 14.0815 75.9962 14.0815H75.2076C73.4539 14.0815 72.3604 14.5242 72.3604 16.9103V30.2249C72.3604 30.5863 72.1828 30.7801 71.8527 30.7801H69.9706C69.6405 30.7801 69.4629 30.5863 69.4629 30.2249V16.9653C69.4629 14.523 68.3694 14.0815 66.6157 14.0815H65.8019C63.8179 14.0815 62.7508 14.3029 62.7508 16.9653V30.2249C62.7508 30.5863 62.5731 30.7801 62.243 30.7801H60.361C60.0297 30.7801 59.8521 30.5863 59.8521 30.2249Z" fill="#202020"/>
<path d="M119.707 25.1637V16.8413C119.707 13.291 121.258 11.1538 125.453 11.1538H127.97C131.682 11.1538 133.461 13.1784 133.461 16.6187C133.461 16.9801 133.284 17.1752 132.952 17.1752H131.097C130.792 17.1752 130.563 16.9801 130.563 16.6187C130.563 14.7341 129.342 14.0126 127.766 14.0126H125.656C123.673 14.0126 122.605 14.7892 122.605 16.8963V25.1062C122.605 27.2421 123.673 27.9924 125.656 27.9924H127.766C129.342 27.9924 130.563 27.3272 130.563 25.4413C130.563 25.0799 130.792 24.8861 131.097 24.8861H132.952C133.284 24.8861 133.461 25.0799 133.461 25.4413C133.461 28.8541 131.681 30.85 127.97 30.85H125.453C121.259 30.8487 119.707 28.714 119.707 25.1637Z" fill="#202020"/>
<path d="M136.051 25.1637V16.8413C136.051 13.291 137.602 11.1538 142.051 11.1538H144.568C149.018 11.1538 150.594 13.2897 150.594 16.8413V25.1637C150.594 28.714 149.018 30.8487 144.568 30.8487H142.051C137.602 30.8487 136.051 28.714 136.051 25.1637ZM142.254 27.9924H144.364C146.601 27.9924 147.694 27.2434 147.694 25.1062V16.8963C147.694 14.7879 146.601 14.0126 144.364 14.0126H142.254C140.017 14.0126 138.948 14.7892 138.948 16.8963V25.1062C138.95 27.2434 140.017 27.9924 142.254 27.9924Z" fill="#202020"/>
<path d="M85.7983 25.1637V16.8413C85.7983 13.291 87.3491 11.1538 91.7987 11.1538H94.3157C98.7652 11.1538 100.341 13.2897 100.341 16.8413V25.1637C100.341 28.714 98.7652 30.8487 94.3157 30.8487H91.7987C87.3491 30.8487 85.7983 28.714 85.7983 25.1637ZM92.0015 27.9924H94.1117C96.349 27.9924 97.4414 27.2434 97.4414 25.1062V16.8963C97.4414 14.7879 96.349 14.0126 94.1117 14.0126H92.0015C89.7642 14.0126 88.6959 14.7892 88.6959 16.8963V25.1062C88.6971 27.2434 89.7642 27.9924 92.0015 27.9924Z" fill="#202020"/>
<path d="M157.509 11.6753H157.284H155.627H152.951C152.62 11.6753 152.442 11.8691 152.442 12.2293V14.2827C152.442 14.6428 152.62 14.8367 152.951 14.8367H155.118V30.5386C155.118 30.9 155.295 31.0938 155.625 31.0938H157.507C157.838 31.0938 158.015 30.9 158.015 30.5386V12.2318C158.017 11.8704 157.839 11.6753 157.509 11.6753Z" fill="#202020"/>
<path d="M161.966 30.5387V17.2241C161.966 13.6738 163.517 11.5366 167.712 11.5366H170.229C174.424 11.5366 176 13.6726 176 17.2241V30.5387C176 30.9001 175.823 31.094 175.491 31.094H173.61C173.279 31.094 173.102 30.9001 173.102 30.5387V17.2791C173.102 15.1707 172.008 14.3954 170.025 14.3954H167.915C165.931 14.3954 164.864 15.172 164.864 17.2791V30.5387C164.864 30.9001 164.686 31.094 164.356 31.094H162.474C162.144 31.094 161.966 30.9001 161.966 30.5387Z" fill="#202020"/>
<path d="M114.603 20.6969V20.418C116.154 19.809 116.612 18.6998 116.612 17.5055V15.8698C116.612 13.0123 115.062 11.2915 111.12 11.2915H105.807C105.807 11.2915 105.807 11.2915 105.782 11.2915H103.9C103.619 11.2915 103.391 11.5404 103.391 11.8467V12.437C103.391 12.4395 103.392 12.4408 103.392 12.4433C103.392 12.4445 103.391 12.4458 103.391 12.447V25.4977C103.391 25.8592 103.569 26.053 103.899 26.053H105.78C106.11 26.053 106.288 25.8592 106.288 25.4977V13.7889H106.289H110.917C112.645 13.7889 113.714 14.3441 113.714 15.6484V17.4505C113.714 19.1412 112.823 19.6414 111.171 19.6414H109.667H108.942C108.331 19.6414 107.836 20.1817 107.836 20.8482C107.836 21.5147 108.331 22.055 108.942 22.055H109.667H111.171C113.154 22.055 114.223 22.5827 114.223 24.0796V26.1618C114.223 27.6875 113.282 28.2139 111.934 28.2139H106.29H104.63C103.946 28.2139 103.391 28.8192 103.391 29.5658V30.1548C103.391 30.4612 103.619 30.71 103.9 30.71H105.782C105.782 30.71 105.782 30.71 105.807 30.71H112.138C115.569 30.71 117.12 28.8792 117.12 25.8554V23.8032C117.12 22.4727 116.536 21.3634 114.603 20.6969Z" fill="#202020"/>
<path d="M55.7795 11.293H55.5549H53.8975H51.2223C50.891 11.293 50.7134 11.4868 50.7134 11.847V13.9004C50.7134 14.2605 50.891 14.4544 51.2223 14.4544H53.3886V30.1563C53.3886 30.5177 53.5663 30.7115 53.8964 30.7115H55.7784C56.1085 30.7115 56.2862 30.5177 56.2862 30.1563V11.8495C56.2873 11.4881 56.1096 11.293 55.7795 11.293Z" fill="#202020"/>
<path d="M42.0652 4.04834L38.3034 2.76153C38.2289 2.73526 38.151 2.72276 38.0731 2.72276H30.6583L21.4957 0.0290753C21.3639 -0.00969175 21.2252 -0.00969175 21.0945 0.0290753L11.9399 2.72151H4.52862C4.45068 2.72151 4.37274 2.73526 4.29824 2.76027L0.539875 4.04709C0.216649 4.15714 -0.00227455 4.48478 1.78327e-05 4.85369L0.147877 36.4138C0.149024 36.764 0.349606 37.0766 0.649908 37.1979L5.24957 39.0612C5.33554 39.0962 5.42609 39.1137 5.51778 39.1137H12.9073L21.059 41.96C21.1358 41.9862 21.2149 42 21.294 42C21.373 42 21.4521 41.9862 21.5289 41.96L29.6875 39.1137H37.0816C37.1733 39.1137 37.2638 39.0962 37.3498 39.0612L41.9541 37.1979C42.2555 37.0766 42.4561 36.764 42.4572 36.4138L42.6051 4.85369C42.6062 4.48603 42.3873 4.15839 42.0652 4.04834ZM10.5094 4.406C9.77703 4.6411 9.03888 4.8737 8.28469 5.09505C12.6941 9.60203 16.645 13.8339 21.0372 18.3296V0.841932C21.0372 0.686864 21.1518 0.56181 21.294 0.56181C21.4361 0.56181 21.5507 0.686864 21.5507 0.841932V18.3171C25.9601 13.8139 30.3695 9.3119 34.7789 4.80867C34.3227 4.67486 33.8654 4.5398 33.4092 4.406H36.5463L21.294 20.6706L6.05191 4.406H10.5094ZM1.68721 35.8248L1.54509 5.46772L4.59739 4.42225L20.5581 21.4547L5.59573 37.408L1.68721 35.8248ZM31.9719 37.433C32.5152 37.2429 33.0585 37.0541 33.6018 36.864C29.5855 32.7709 25.5681 28.6779 21.5519 24.5849V41.1596C21.5519 41.3147 21.4372 41.4398 21.2951 41.4398C21.153 41.4398 21.0384 41.3147 21.0384 41.1596V24.5723C17.021 28.6704 13.0024 32.7672 8.98501 36.8652C9.52831 37.0553 10.0705 37.2442 10.6138 37.4342H7.04451L21.2951 22.2401L35.5583 37.4342H31.9719V37.433ZM40.9179 35.8248L37.0048 37.408L22.0287 21.4547L38.0031 4.42225L41.0589 5.46772L40.9179 35.8248Z" fill="#202020"/>
</svg>
